<?xml version="1.0" encoding="utf-8"?>
<svg xmlns="http://www.w3.org/2000/svg" width="100%" height="100%" viewbox="0 0 100 100">
	<defs>
		<linearGradient id="bg" x1="0" y1="0" x2="1" y2="1">
			<stop offset="5%" stop-color="#5a9fd4" />
			<stop offset="50%" stop-color="#306998" />
			<stop offset="50%" stop-color="#ffd43b" />
			<stop offset="95%" stop-color="#ffe873" />
		</linearGradient>
		<linearGradient id="fg" x1="0" y1="0" x2="1" y2="1">
			<stop offset="5%" stop-color="#ffe873" />
			<stop offset="50%" stop-color="#ffd43b" />
			<stop offset="50%" stop-color="#306998" />
			<stop offset="95%" stop-color="#5a9fd4" />
		</linearGradient>
	</defs>
	<rect x="0" y="0" width="100" height="100" style="fill:url(#bg)" />
	<path d="M 0,0 M 100,100 M 58,17 m 0,0 -15,15 2,2 15,-15 -2,-2 m -15,2 15,15 2,-2 -15,-15 m 4.5,-4.5 15,15 2,-2 -15,-15 M 81,40 m 0,0 -15,15 2,2 15,-15 -2,-2 m -15,2 15,15 2,-2 -15,-15 m 4.5,-4.5 15,15 2,-2 -15,-15 M 65,35 m -1,-1 -45,45 2,2 45,-45 -1,-1 m -15,15 -19,-19 -2,2 19,19 19,19 2,-2 -19,-19 m -8,8 m -6,-6 m 0,0 -13,13 -13,-13 2,-2 11,11 11,-11 2,2 m 6,6 m 6,6 m 0,0 -13,13 13,13 2,-2 -11,-11 11,-11 2,2" style="fill:url(#fg)" />
	<circle cx="15" cy="15" r="5" style="fill:#ffe873" />
	<circle cx="85" cy="85" r="5" style="fill:#306998" />
</svg>
